<?xml version="1.0" encoding="utf-8"?>
  <!DOCTYPE svg PUBLIC "-//W3C//DTD SVG 1.1//EN" "http://www.w3.org/Graphics/SVG/1.1/DTD/svg11.dtd">
  <svg version="1.1" xmlns="http://www.w3.org/2000/svg" xmlns:xlink="http://www.w3.org/1999/xlink"   x="0" y="0"   width="100px" height="100px"  viewBox="0 0 1024 1024">
  <path d="M509 22Q300 27 161.5 165.5 23 304 18 512 23 721 161.5 859.5 300 998 509 1003 717 998 856 859.5 995 721 1000 512 999 414 962 324.5 925 235 855.5 165.5 786 96 696.5 59 607 22 509 22M764 702L698 768 509 579 319 768 254 702 443 512 254 323 328 249 517 438 698 257 764 323 575 512 764 702Z"/>
  </svg>